<svg xmlns="http://www.w3.org/2000/svg" width="1200" height="800" viewBox="0 0 1200 800" role="img" aria-labelledby="title desc">
  <title id="title">Portfolio case study placeholder</title>
  <desc id="desc">Neutral product interface placeholder for future portfolio screenshots.</desc>
  <rect width="1200" height="800" fill="#f6f5f2"/>
  <rect x="56" y="56" width="1088" height="688" rx="20" fill="#ffffff" stroke="#1f2937" stroke-opacity="0.16" stroke-width="2"/>
  <rect x="96" y="102" width="1008" height="74" rx="12" fill="#111827"/>
  <circle cx="136" cy="139" r="10" fill="#16a34a"/>
  <circle cx="168" cy="139" r="10" fill="#2563eb"/>
  <circle cx="200" cy="139" r="10" fill="#ea580c"/>
  <rect x="248" y="128" width="260" height="22" rx="11" fill="#f8fafc" opacity="0.88"/>
  <rect x="96" y="220" width="388" height="234" rx="16" fill="#f0fdf4" stroke="#16a34a" stroke-opacity="0.24"/>
  <rect x="526" y="220" width="578" height="92" rx="16" fill="#eff6ff" stroke="#2563eb" stroke-opacity="0.22"/>
  <rect x="526" y="346" width="578" height="108" rx="16" fill="#fff7ed" stroke="#ea580c" stroke-opacity="0.22"/>
  <rect x="96" y="494" width="1008" height="160" rx="16" fill="#f8fafc" stroke="#111827" stroke-opacity="0.1"/>
  <rect x="132" y="258" width="180" height="22" rx="11" fill="#14532d" opacity="0.9"/>
  <rect x="132" y="300" width="292" height="18" rx="9" fill="#166534" opacity="0.22"/>
  <rect x="132" y="336" width="248" height="18" rx="9" fill="#166534" opacity="0.18"/>
  <rect x="132" y="372" width="312" height="18" rx="9" fill="#166534" opacity="0.14"/>
  <rect x="566" y="252" width="210" height="18" rx="9" fill="#1d4ed8" opacity="0.74"/>
  <rect x="566" y="382" width="248" height="18" rx="9" fill="#c2410c" opacity="0.74"/>
  <rect x="132" y="536" width="186" height="18" rx="9" fill="#111827" opacity="0.42"/>
  <rect x="132" y="580" width="820" height="16" rx="8" fill="#111827" opacity="0.12"/>
  <rect x="132" y="616" width="676" height="16" rx="8" fill="#111827" opacity="0.1"/>
  <text x="600" y="714" text-anchor="middle" fill="#374151" font-family="Arial, Helvetica, sans-serif" font-size="24" font-weight="700">Screenshot placeholder</text>
</svg>
